<svg width="60" height="60" viewBox="0 0 60 60" fill="none" xmlns="http://www.w3.org/2000/svg">
<path d="M57.7041 0H38.4184C38.1658 0 37.9592 0.206633 37.9592 0.459184V4.7449C37.9592 4.99745 38.1658 5.20408 38.4184 5.20408H50.6939L35.4413 20.4566C31.6148 17.5102 26.9464 15.9184 22.0408 15.9184C16.1556 15.9184 10.6148 18.2143 6.45918 22.3776C2.30357 26.5408 0 32.074 0 37.9592C0 43.8444 2.29592 49.3852 6.45918 53.5408C10.6148 57.7041 16.1556 60 22.0408 60C27.926 60 33.4668 57.7041 37.6224 53.5408C41.7857 49.3852 44.0816 43.8444 44.0816 37.9592C44.0816 33.0536 42.4898 28.4005 39.551 24.574L54.7959 9.32908V21.5816C54.7959 21.8342 55.0026 22.0408 55.2551 22.0408H59.5408C59.7934 22.0408 60 21.8342 60 21.5816V2.29592C60 1.03316 58.9668 0 57.7041 0ZM22.0408 54.1837C13.0944 54.1837 5.81633 46.9056 5.81633 37.9592C5.81633 29.0128 13.0944 21.7347 22.0408 21.7347C30.9872 21.7347 38.2653 29.0128 38.2653 37.9592C38.2653 46.9056 30.9872 54.1837 22.0408 54.1837Z" fill="white"/>
</svg>
