<svg width="45" height="60" viewBox="0 0 45 60" fill="none" xmlns="http://www.w3.org/2000/svg">
<path fill-rule="evenodd" clip-rule="evenodd" d="M22.5004 16.5377C27.7017 11.1939 40.7032 20.5503 22.5004 32.5767C4.29759 20.5503 17.2991 11.1976 22.5004 16.5452V16.5377Z" fill="white"/>
<path d="M0 7.50012C0 5.51097 0.790189 3.60328 2.19673 2.19673C3.60328 0.790189 5.51097 0 7.50012 0L37.5006 0C39.4898 0 41.3974 0.790189 42.804 2.19673C44.2105 3.60328 45.0007 5.51097 45.0007 7.50012V58.1259C45.0006 58.4651 44.9084 58.7979 44.7341 59.0888C44.5597 59.3797 44.3097 59.6179 44.0107 59.778C43.7117 59.9381 43.3749 60.0141 43.0361 59.9979C42.6973 59.9817 42.3693 59.8739 42.0869 59.686L22.5004 49.1295L2.9138 59.686C2.63144 59.8739 2.3034 59.9817 1.96462 59.9979C1.62585 60.0141 1.28902 59.9381 0.990014 59.778C0.691008 59.6179 0.441023 59.3797 0.266682 59.0888C0.0923416 58.7979 0.000175204 58.4651 0 58.1259V7.50012ZM7.50012 3.75006C6.50554 3.75006 5.5517 4.14515 4.84843 4.84843C4.14516 5.5517 3.75006 6.50554 3.75006 7.50012V54.6234L21.4616 45.3157C21.7693 45.111 22.1307 45.0017 22.5004 45.0017C22.87 45.0017 23.2314 45.111 23.5391 45.3157L41.2507 54.6234V7.50012C41.2507 6.50554 40.8556 5.5517 40.1523 4.84843C39.449 4.14515 38.4952 3.75006 37.5006 3.75006H7.50012Z" fill="white"/>
</svg>
