<svg width="60" height="60" viewBox="0 0 60 60" fill="none" xmlns="http://www.w3.org/2000/svg">
<path d="M30 0C13.458 0 0 13.458 0 30C0 46.542 13.458 60 30 60C46.542 60 60 46.542 60 30C60 13.458 46.542 0 30 0ZM6 30C6 27.303 6.468 24.714 7.293 22.293L12 27L18 33V39L24 45L27 48V53.793C15.183 52.308 6 42.216 6 30ZM48.99 44.619C47.031 43.041 44.061 42 42 42V39C42 37.4087 41.3679 35.8826 40.2426 34.7574C39.1174 33.6321 37.5913 33 36 33H24V24C25.5913 24 27.1174 23.3679 28.2426 22.2426C29.3679 21.1174 30 19.5913 30 18V15H33C34.5913 15 36.1174 14.3679 37.2426 13.2426C38.3679 12.1174 39 10.5913 39 9V7.767C47.784 11.334 54 19.95 54 30C53.9995 35.2941 52.2368 40.4374 48.99 44.619Z" fill="white"/>
</svg>
