<svg width="60" height="60" viewBox="0 0 60 60" fill="none" xmlns="http://www.w3.org/2000/svg">
<path d="M43.4643 32.4643C47.0536 28.875 49.0357 24.0938 49.0357 19.0179C49.0357 13.9353 47.0603 9.16071 43.4643 5.57143C39.875 1.98214 35.0938 0 30.0179 0C24.942 0 20.1607 1.97545 16.5714 5.57143C12.9821 9.16741 11 13.9353 11 19.0179C11 23.2902 12.3996 27.3482 14.9777 30.6629C15.4665 31.2924 15.9955 31.8884 16.5647 32.4643C17.1339 33.0335 17.7366 33.5625 18.3594 34.0513C21.0112 36.1138 24.1384 37.4263 27.4732 37.8683V45H19.8393C19.5446 45 19.3036 45.2411 19.3036 45.5357V49.5536C19.3036 49.8482 19.5446 50.0893 19.8393 50.0893H27.4732V59.4643C27.4732 59.7589 27.7143 60 28.0089 60H32.0268C32.3214 60 32.5625 59.7589 32.5625 59.4643V50.0893H40.1964C40.4911 50.0893 40.7321 49.8482 40.7321 49.5536V45.5357C40.7321 45.2411 40.4911 45 40.1964 45H32.5625V37.8683C36.6808 37.3192 40.4777 35.4509 43.4643 32.4643ZM30.0179 32.9464C26.2946 32.9464 22.8058 31.5 20.1674 28.8683C17.5357 26.2366 16.0893 22.7411 16.0893 19.0179C16.0893 15.2946 17.5357 11.8058 20.1674 9.16741C22.7991 6.52902 26.2946 5.08929 30.0179 5.08929C33.7411 5.08929 37.2299 6.53571 39.8683 9.16741C42.5 11.7991 43.9464 15.2946 43.9464 19.0179C43.9464 22.7411 42.5 26.2299 39.8683 28.8683C37.2299 31.5 33.7411 32.9464 30.0179 32.9464Z" fill="white"/>
</svg>
